<?xml version="1.0" encoding="UTF-8" standalone="no"?>
<!DOCTYPE svg PUBLIC "-//W3C//DTD SVG 20010904//EN"
              "http://www.w3.org/TR/2001/REC-SVG-20010904/DTD/svg10.dtd">

<svg xmlns="http://www.w3.org/2000/svg"
     width="29.1667in" height="29.1667in"
     viewBox="0 0 2100 2100">
  <path id="CB_colored"
        fill="#f5dce0" stroke="black" stroke-width="1"
        d="M 887.00,598.00
           C 877.66,602.95 870.64,612.52 869.00,623.00
             869.00,623.00 705.00,623.00 705.00,623.00
             677.63,623.04 646.86,637.35 628.09,657.01
             618.46,667.10 609.68,681.05 604.45,694.00
             599.76,705.63 596.57,720.44 596.86,733.00
             596.86,733.00 596.86,743.00 596.86,743.00
             596.86,743.00 596.86,1308.00 596.86,1308.00
             597.02,1321.28 601.09,1337.68 606.00,1350.00
             626.70,1401.92 671.52,1434.28 727.00,1438.09
             727.00,1438.09 737.00,1439.00 737.00,1439.00
             737.00,1439.00 955.00,1439.00 955.00,1439.00
             955.00,1439.00 955.00,1459.00 955.00,1459.00
             955.02,1471.18 958.27,1472.98 970.00,1473.00
             970.00,1473.00 1053.00,1473.00 1053.00,1473.00
             1053.00,1473.00 1011.73,1521.00 1011.73,1521.00
             1011.73,1521.00 941.58,1603.00 941.58,1603.00
             941.58,1603.00 915.77,1634.00 915.77,1634.00
             914.33,1636.76 914.03,1638.96 914.70,1642.00
             916.44,1649.91 923.25,1649.97 930.00,1650.00
             930.00,1650.00 949.00,1650.00 949.00,1650.00
             949.00,1650.00 964.00,1649.00 964.00,1649.00
             964.00,1649.00 1005.00,1649.00 1005.00,1649.00
             1008.38,1648.99 1011.97,1649.27 1014.90,1647.26
             1018.35,1644.90 1020.38,1639.75 1022.00,1636.00
             1022.00,1636.00 1030.78,1617.00 1030.78,1617.00
             1030.78,1617.00 1061.69,1551.00 1061.69,1551.00
             1061.69,1551.00 1080.00,1512.00 1080.00,1512.00
             1080.00,1512.00 1108.69,1575.00 1108.69,1575.00
             1108.69,1575.00 1127.75,1617.00 1127.75,1617.00
             1127.75,1617.00 1137.76,1639.00 1137.76,1639.00
             1139.25,1642.02 1141.06,1646.29 1144.10,1647.98
             1146.30,1649.20 1149.53,1649.00 1152.00,1649.00
             1152.00,1649.00 1220.00,1649.00 1220.00,1649.00
             1222.06,1649.00 1225.10,1649.11 1227.00,1648.40
             1232.15,1646.47 1234.17,1640.95 1232.07,1636.00
             1230.82,1633.06 1225.60,1626.80 1223.42,1624.00
             1223.42,1624.00 1207.88,1604.00 1207.88,1604.00
             1207.88,1604.00 1146.42,1525.00 1146.42,1525.00
             1146.42,1525.00 1106.00,1473.00 1106.00,1473.00
             1106.00,1473.00 1199.00,1473.00 1199.00,1473.00
             1211.87,1472.85 1215.98,1470.17 1216.00,1457.00
             1216.00,1457.00 1216.00,1439.00 1216.00,1439.00
             1216.00,1439.00 1305.00,1439.00 1305.00,1439.00
             1305.00,1439.00 1317.00,1438.09 1317.00,1438.09
             1359.75,1435.10 1398.18,1418.61 1430.00,1389.83
             1439.64,1381.11 1446.85,1370.90 1455.08,1361.00
             1455.08,1361.00 1498.20,1309.00 1498.20,1309.00
             1498.20,1309.00 1531.25,1269.00 1531.25,1269.00
             1539.37,1259.17 1546.67,1252.58 1546.99,1239.00
             1547.56,1213.93 1529.63,1204.04 1507.00,1204.00
             1507.00,1204.00 1406.00,1204.00 1406.00,1204.00
             1406.00,1204.00 1252.00,1204.00 1252.00,1204.00
             1252.00,1204.00 1237.00,1205.00 1237.00,1205.00
             1237.00,1205.00 1130.00,1205.00 1130.00,1205.00
             1130.00,1205.00 938.00,1205.00 938.00,1205.00
             912.41,1204.96 888.80,1191.14 880.52,1166.00
             876.65,1154.27 877.98,1150.39 878.00,1139.00
             878.00,1139.00 878.00,914.00 878.00,914.00
             878.05,883.02 904.03,857.05 935.00,857.00
             935.00,857.00 1164.00,857.00 1164.00,857.00
             1172.26,856.99 1179.68,855.95 1187.00,851.83
             1203.02,842.79 1209.49,823.09 1203.45,806.00
             1200.64,798.04 1190.66,785.96 1185.21,779.00
             1185.21,779.00 1156.12,741.00 1156.12,741.00
             1156.12,741.00 1100.00,668.00 1100.00,668.00
             1086.67,651.04 1080.23,638.58 1059.00,629.43
             1047.75,624.58 1039.06,623.23 1027.00,622.32
             1027.00,622.32 1016.00,623.00 1016.00,623.00
             1016.00,623.00 962.00,623.00 962.00,623.00
             958.53,622.99 953.20,623.14 950.27,621.07
             946.92,618.68 946.94,613.15 940.79,606.00
             938.31,603.11 931.76,598.31 931.36,594.96
             931.11,592.87 933.26,587.23 934.00,585.00
             934.00,585.00 941.67,562.00 941.67,562.00
             941.67,562.00 986.67,427.00 986.67,427.00
             986.67,427.00 997.80,394.10 997.80,394.10
             1000.28,389.22 1006.63,387.83 1006.63,380.00
             1006.63,370.05 994.88,364.39 987.11,370.51
             981.39,375.02 983.54,380.50 983.09,385.58
             983.09,385.58 974.00,414.00 974.00,414.00
             974.00,414.00 954.67,472.00 954.67,472.00
             954.67,472.00 925.00,562.00 925.00,562.00
             925.00,562.00 917.67,584.00 917.67,584.00
             916.74,586.71 915.96,590.19 912.87,591.12
             910.20,591.92 903.71,591.77 901.63,589.67
             899.13,587.14 894.61,575.86 892.74,572.00
             892.74,572.00 875.25,537.00 875.25,537.00
             875.25,537.00 866.75,519.00 866.75,519.00
             866.75,519.00 782.25,347.00 782.25,347.00
             782.25,347.00 769.75,321.00 769.75,321.00
             769.75,321.00 751.77,285.00 751.77,285.00
             748.17,277.22 750.98,265.23 738.00,265.08
             728.88,264.98 723.44,273.58 726.74,281.98
             729.12,288.05 733.95,286.59 738.20,294.02
             738.20,294.02 751.31,321.00 751.31,321.00
             751.31,321.00 763.25,345.00 763.25,345.00
             763.25,345.00 800.26,421.00 800.26,421.00
             800.26,421.00 849.26,521.00 849.26,521.00
             849.26,521.00 873.26,570.00 873.26,570.00
             873.26,570.00 887.00,598.00 887.00,598.00 Z
           M 932.00,623.00
           C 932.00,623.00 885.00,623.00 885.00,623.00
             896.48,599.60 925.86,603.77 932.00,623.00 Z
           M 1492.00,824.00
           C 1512.39,818.58 1527.23,812.05 1539.96,794.00
             1549.39,780.62 1553.81,764.27 1554.00,748.00
             1554.00,748.00 1554.00,704.00 1554.00,704.00
             1553.49,660.94 1513.49,619.07 1470.00,619.00
             1470.00,619.00 1177.00,619.00 1177.00,619.00
             1142.03,619.05 1120.39,654.59 1133.87,686.00
             1138.16,695.99 1158.32,719.87 1166.12,730.00
             1166.12,730.00 1232.65,816.00 1232.65,816.00
             1232.65,816.00 1256.00,846.00 1256.00,846.00
             1262.35,854.08 1266.98,857.47 1267.00,868.00
             1267.00,868.00 1267.00,904.00 1267.00,904.00
             1267.00,904.00 1266.05,917.00 1266.05,917.00
             1266.05,917.00 1266.05,933.00 1266.05,933.00
             1266.05,933.00 1267.00,943.00 1267.00,943.00
             1267.00,943.00 1267.00,1128.00 1267.00,1128.00
             1267.06,1166.92 1297.47,1191.82 1335.00,1192.00
             1335.00,1192.00 1472.00,1192.00 1472.00,1192.00
             1479.69,1191.99 1495.83,1190.54 1503.00,1188.25
             1524.75,1181.31 1542.29,1164.83 1549.48,1143.00
             1552.70,1133.23 1552.26,1129.52 1553.17,1120.00
             1553.17,1120.00 1554.00,1110.00 1554.00,1110.00
             1554.00,1110.00 1554.00,898.00 1554.00,898.00
             1553.97,878.74 1541.52,860.64 1526.91,848.89
             1526.91,848.89 1492.00,824.00 1492.00,824.00 Z
           M 1433.00,710.00
           C 1433.00,710.00 1433.00,766.00 1433.00,766.00
             1433.00,766.00 1398.00,766.00 1398.00,766.00
             1398.00,766.00 1377.00,767.00 1377.00,767.00
             1377.00,767.00 1377.00,710.00 1377.00,710.00
             1377.00,710.00 1433.00,710.00 1433.00,710.00 Z
           M 1432.00,909.00
           C 1432.00,909.00 1432.00,1089.00 1432.00,1089.00
             1432.00,1089.00 1376.00,1089.00 1376.00,1089.00
             1376.00,1089.00 1376.00,909.00 1376.00,909.00
             1376.00,909.00 1432.00,909.00 1432.00,909.00 Z" />
</svg>
