<?xml version="1.0" encoding="UTF-8" standalone="no"?>
<!DOCTYPE svg PUBLIC "-//W3C//DTD SVG 20010904//EN"
              "http://www.w3.org/TR/2001/REC-SVG-20010904/DTD/svg10.dtd">

<svg xmlns="http://www.w3.org/2000/svg"
     width="29.1667in" height="29.1667in"
     viewBox="0 0 2100 2100">
  <path id="media_shadow"
        fill="#000" stroke="black" stroke-width="1"
        d="M 1114.00,1035.00
           C 1109.44,1010.70 1079.32,1015.21 1063.00,1023.37
             1054.15,1027.79 1042.35,1036.52 1035.00,1043.17
             1035.00,1043.17 1023.25,1055.16 1023.25,1055.16
             1021.48,1056.27 1017.60,1056.29 1015.00,1057.04
             1015.00,1057.04 996.00,1064.20 996.00,1064.20
             996.00,1064.20 949.00,1081.69 949.00,1081.69
             936.90,1086.01 929.17,1089.73 916.00,1088.00
             918.70,1082.58 923.32,1080.48 928.00,1076.79
             933.30,1072.62 945.37,1062.51 949.72,1057.91
             953.17,1054.26 958.44,1048.32 960.82,1044.00
             965.65,1035.22 967.07,1020.98 955.99,1016.23
             953.63,1015.21 951.52,1015.08 949.00,1015.01
             946.00,1014.94 942.91,1014.95 940.00,1015.79
             924.24,1020.32 905.86,1043.36 899.31,1058.00
             895.38,1066.78 896.49,1072.08 894.07,1075.82
             891.61,1079.59 883.18,1083.16 879.00,1085.25
             870.53,1089.48 855.36,1096.33 846.00,1096.91
             842.62,1097.12 839.34,1096.44 836.00,1096.00
             837.23,1089.46 840.95,1083.76 844.14,1078.00
             844.14,1078.00 857.00,1055.00 857.00,1055.00
             873.92,1026.80 892.21,999.77 911.29,973.00
             916.06,966.31 927.24,951.57 930.20,945.00
             932.52,939.86 932.66,934.05 926.96,931.02
             922.70,928.76 917.64,930.77 914.00,933.22
             914.00,933.22 892.00,950.63 892.00,950.63
             871.42,966.12 857.38,975.62 835.00,988.42
             823.13,995.21 810.51,1002.27 797.00,1005.00
             800.67,988.91 817.10,959.88 824.12,943.00
             827.38,935.19 825.51,924.78 815.00,926.24
             807.59,927.27 800.19,937.78 795.00,943.00
             795.00,943.00 781.96,957.00 781.96,957.00
             781.96,957.00 746.00,993.00 746.00,993.00
             706.00,1033.00 653.93,1079.42 606.00,1109.42
             586.70,1121.51 560.15,1138.14 537.00,1139.82
             534.18,1140.02 531.70,1139.61 529.00,1138.83
             527.25,1138.33 525.58,1137.72 524.02,1136.78
             511.04,1128.94 520.27,1118.86 522.87,1113.00
             525.31,1107.49 523.77,1100.27 517.00,1099.24
             504.03,1097.26 498.79,1118.45 499.01,1128.00
             499.50,1149.17 518.07,1158.41 537.00,1157.99
             552.91,1157.63 571.89,1150.09 586.00,1143.03
             610.74,1130.66 642.04,1108.53 664.00,1091.42
             709.19,1056.22 745.68,1020.32 786.00,980.00
             783.96,985.11 781.49,990.67 780.24,996.00
             779.47,999.27 778.85,1002.63 779.18,1006.00
             780.77,1022.47 794.46,1025.00 808.00,1021.52
             816.12,1019.44 828.41,1013.29 836.00,1009.30
             849.33,1002.28 870.30,990.03 882.00,981.00
             882.00,981.00 861.34,1012.00 861.34,1012.00
             848.16,1032.18 834.01,1055.47 823.25,1077.00
             816.30,1090.90 813.18,1107.79 832.00,1113.56
             835.74,1114.70 838.13,1114.95 842.00,1115.00
             857.90,1115.18 870.68,1110.02 885.00,1103.56
             891.14,1100.80 894.10,1097.97 901.00,1096.00
             904.82,1105.53 914.75,1107.20 924.00,1106.99
             932.60,1106.79 943.79,1103.07 952.00,1100.33
             952.00,1100.33 1013.00,1078.00 1013.00,1078.00
             1013.74,1093.15 1025.63,1097.46 1039.00,1095.71
             1059.43,1093.05 1080.17,1078.54 1098.00,1069.00
             1091.19,1082.30 1089.39,1099.71 1107.00,1105.23
             1110.88,1106.44 1114.95,1106.95 1119.00,1107.00
             1146.27,1107.32 1176.91,1090.05 1203.00,1081.00
             1198.11,1098.21 1209.24,1108.80 1226.00,1109.00
             1246.36,1109.23 1282.25,1095.72 1301.00,1087.00
             1301.72,1090.13 1302.56,1093.21 1304.22,1096.00
             1309.29,1104.50 1317.69,1107.00 1327.00,1107.00
             1343.16,1107.00 1358.27,1100.03 1372.00,1092.15
             1372.00,1092.15 1385.00,1084.00 1385.00,1084.00
             1379.87,1099.83 1386.50,1111.79 1404.00,1112.00
             1420.41,1112.19 1436.75,1106.73 1452.00,1101.05
             1452.00,1101.05 1514.00,1078.02 1514.00,1078.02
             1533.80,1071.89 1577.48,1064.03 1598.00,1064.00
             1598.00,1064.00 1622.00,1064.00 1622.00,1064.00
             1622.00,1064.00 1635.00,1064.77 1635.00,1064.77
             1640.09,1065.06 1652.16,1066.66 1655.81,1064.77
             1661.65,1061.17 1661.33,1051.41 1654.96,1048.73
             1652.16,1047.56 1644.22,1047.02 1641.00,1047.00
             1641.00,1047.00 1623.00,1046.00 1623.00,1046.00
             1623.00,1046.00 1596.00,1046.00 1596.00,1046.00
             1596.00,1046.00 1584.00,1046.91 1584.00,1046.91
             1559.00,1048.66 1534.23,1053.49 1510.00,1059.88
             1510.00,1059.88 1436.00,1087.00 1436.00,1087.00
             1426.01,1090.33 1411.34,1095.51 1401.00,1093.00
             1401.00,1093.00 1418.29,1067.00 1418.29,1067.00
             1421.63,1062.77 1431.36,1052.64 1433.02,1049.00
             1435.50,1043.55 1433.40,1036.68 1426.99,1035.62
             1422.41,1034.87 1418.43,1037.81 1415.00,1040.43
             1409.75,1044.44 1404.75,1048.70 1399.00,1052.00
             1398.79,1047.47 1397.98,1041.11 1396.09,1037.00
             1387.50,1018.43 1363.38,1021.90 1348.00,1028.43
             1338.45,1032.48 1326.36,1040.68 1319.17,1048.09
             1319.17,1048.09 1304.68,1065.42 1304.68,1065.42
             1304.68,1065.42 1283.00,1074.40 1283.00,1074.40
             1271.13,1079.11 1241.77,1090.18 1230.00,1090.91
             1226.62,1091.11 1223.34,1090.44 1220.00,1090.00
             1221.25,1083.35 1224.89,1078.45 1228.72,1073.00
             1236.17,1062.41 1245.81,1053.09 1255.00,1044.00
             1255.00,1044.00 1264.57,1034.91 1264.57,1034.91
             1269.66,1028.39 1266.47,1017.82 1257.00,1019.24
             1252.70,1019.89 1247.17,1025.13 1244.00,1028.09
             1244.00,1028.09 1219.96,1052.73 1219.96,1052.73
             1215.77,1056.26 1198.13,1062.55 1192.00,1065.00
             1192.00,1065.00 1151.00,1081.20 1151.00,1081.20
             1137.57,1086.48 1125.42,1091.67 1111.00,1087.00
             1113.86,1077.42 1124.49,1054.01 1131.21,1047.30
             1131.21,1047.30 1167.00,1021.35 1167.00,1021.35
             1189.52,1004.15 1220.36,980.35 1238.25,959.00
             1250.75,944.08 1269.12,921.84 1267.91,901.00
             1267.78,898.82 1267.12,895.04 1266.39,893.00
             1260.89,877.67 1243.05,883.21 1233.00,889.70
             1209.89,904.62 1184.16,937.37 1168.00,960.00
             1168.00,960.00 1134.34,1007.00 1134.34,1007.00
             1130.08,1013.27 1118.90,1031.09 1114.00,1035.00 Z
           M 1250.00,902.00
           C 1247.97,916.41 1240.68,926.91 1231.80,938.00
             1217.92,955.33 1206.92,965.50 1190.00,979.59
             1183.66,984.87 1169.86,997.07 1163.00,1000.00
             1165.41,993.81 1177.34,978.17 1181.88,972.00
             1194.92,954.31 1208.36,936.49 1224.00,921.00
             1230.38,914.68 1241.48,904.71 1250.00,902.00 Z
           M 787.00,979.00
           C 787.00,979.00 787.00,980.00 787.00,980.00
             787.00,980.00 786.00,979.00 786.00,979.00
             786.00,979.00 787.00,979.00 787.00,979.00 Z
           M 1281.11,988.74
           C 1271.03,995.07 1278.98,1009.12 1288.98,1004.56
             1295.40,1001.62 1295.26,992.89 1290.85,989.60
             1287.98,987.45 1284.33,987.93 1281.11,988.74 Z
           M 1163.00,1000.00
           C 1163.00,1000.00 1163.00,1001.00 1163.00,1001.00
             1163.00,1001.00 1162.00,1000.00 1162.00,1000.00
             1162.00,1000.00 1163.00,1000.00 1163.00,1000.00 Z
           M 1162.00,1001.00
           C 1162.00,1001.00 1162.00,1002.00 1162.00,1002.00
             1162.00,1002.00 1161.00,1001.00 1161.00,1001.00
             1161.00,1001.00 1162.00,1001.00 1162.00,1001.00 Z
           M 1161.00,1002.00
           C 1161.00,1002.00 1161.00,1003.00 1161.00,1003.00
             1161.00,1003.00 1160.00,1002.00 1160.00,1002.00
             1160.00,1002.00 1161.00,1002.00 1161.00,1002.00 Z
           M 945.00,1034.00
           C 940.78,1041.88 928.55,1053.21 921.00,1058.00
             924.36,1049.41 936.36,1037.36 945.00,1034.00 Z
           M 1031.00,1078.00
           C 1037.86,1062.85 1058.86,1045.26 1074.00,1038.51
             1080.64,1035.55 1098.83,1030.41 1096.76,1044.00
             1095.85,1049.93 1086.82,1054.15 1082.00,1056.99
             1067.63,1065.45 1047.84,1077.63 1031.00,1078.00 Z
           M 1369.00,1041.31
           C 1382.37,1040.60 1381.53,1050.49 1378.66,1060.00
             1378.11,1061.80 1377.00,1066.13 1376.05,1067.47
             1374.44,1069.74 1367.67,1073.42 1365.00,1074.99
             1354.42,1081.21 1342.44,1087.65 1330.00,1088.80
             1328.55,1088.97 1326.42,1089.03 1325.00,1088.80
             1313.08,1086.63 1322.15,1072.98 1326.29,1068.00
             1337.74,1054.19 1351.13,1044.53 1369.00,1041.31 Z
           M 921.00,1058.00
           C 921.00,1058.00 921.00,1059.00 921.00,1059.00
             921.00,1059.00 920.00,1058.00 920.00,1058.00
             920.00,1058.00 921.00,1058.00 921.00,1058.00 Z
           M 920.00,1059.00
           C 920.00,1059.00 920.00,1060.00 920.00,1060.00
             920.00,1060.00 919.00,1059.00 919.00,1059.00
             919.00,1059.00 920.00,1059.00 920.00,1059.00 Z" />
</svg>
