<?xml version="1.0" encoding="UTF-8" standalone="no"?>
<!DOCTYPE svg PUBLIC "-//W3C//DTD SVG 20010904//EN"
              "http://www.w3.org/TR/2001/REC-SVG-20010904/DTD/svg10.dtd">

<svg xmlns="http://www.w3.org/2000/svg"
     width="29.1667in" height="29.1667in"
     viewBox="0 0 2100 2100">
  <path id="media"
        fill="#fff" stroke="black" stroke-width="1"
        d="M 1102.00,1025.00
           C 1098.22,1005.19 1075.12,1004.90 1060.00,1010.08
             1048.97,1013.86 1035.67,1022.43 1027.00,1030.17
             1027.00,1030.17 1010.72,1045.98 1010.72,1045.98
             1010.72,1045.98 997.00,1049.60 997.00,1049.60
             997.00,1049.60 950.00,1067.34 950.00,1067.34
             950.00,1067.34 918.00,1078.11 918.00,1078.11
             912.59,1079.33 907.09,1080.47 904.00,1075.00
             910.46,1072.49 915.73,1067.47 921.00,1063.08
             930.69,1055.00 944.88,1043.60 950.10,1032.00
             956.95,1016.77 948.77,1001.72 931.00,1005.52
             914.62,1009.01 894.39,1032.09 887.87,1047.00
             887.87,1047.00 882.02,1066.62 882.02,1066.62
             879.92,1069.71 871.55,1073.47 868.00,1075.25
             858.64,1079.93 842.50,1087.63 832.00,1087.42
             829.60,1087.37 826.45,1086.49 824.00,1086.00
             826.66,1076.66 840.86,1052.24 846.40,1043.00
             863.33,1014.77 881.92,987.81 901.00,961.00
             905.00,955.38 916.89,939.48 918.87,934.00
             920.84,928.52 919.24,922.01 913.00,920.44
             908.15,919.23 903.64,922.22 900.00,925.02
             900.00,925.02 877.00,943.35 877.00,943.35
             860.36,956.17 833.67,973.76 815.00,983.24
             805.98,987.83 795.11,994.09 785.00,995.00
             789.21,980.60 797.63,963.69 804.26,950.00
             806.78,944.79 812.97,933.30 813.63,928.00
             814.86,918.24 806.04,913.38 798.00,918.70
             792.93,922.05 785.13,931.25 780.83,936.00
             780.83,936.00 765.00,952.00 765.00,952.00
             765.00,952.00 740.00,977.99 740.00,977.99
             740.00,977.99 730.00,987.04 730.00,987.04
             730.00,987.04 710.00,1006.91 710.00,1006.91
             676.04,1038.55 646.82,1062.92 609.00,1089.86
             590.29,1103.19 558.19,1123.10 536.00,1128.35
             526.04,1130.70 508.94,1132.05 505.58,1119.00
             503.73,1111.79 511.07,1106.29 511.85,1100.00
             513.14,1089.68 503.20,1087.30 497.30,1091.72
             490.10,1097.12 486.82,1109.41 487.01,1118.00
             487.47,1138.00 503.52,1147.97 522.00,1148.00
             541.89,1148.03 555.45,1142.53 573.00,1133.75
             597.52,1121.50 620.11,1105.79 642.00,1089.37
             664.88,1072.22 686.79,1054.02 708.00,1034.83
             708.00,1034.83 740.00,1004.04 740.00,1004.04
             740.00,1004.04 750.00,994.99 750.00,994.99
             750.00,994.99 774.00,970.00 774.00,970.00
             771.23,977.99 766.56,987.41 767.09,996.00
             768.15,1013.10 783.34,1015.40 797.00,1011.57
             821.26,1004.77 847.23,985.18 869.00,973.00
             869.00,973.00 847.00,1006.00 847.00,1006.00
             847.00,1006.00 820.70,1050.00 820.70,1050.00
             814.49,1061.30 805.65,1073.84 806.02,1087.00
             806.28,1096.67 813.03,1102.33 822.00,1104.50
             834.42,1107.49 847.33,1104.38 859.00,1099.80
             868.96,1095.89 878.70,1091.29 888.00,1086.00
             893.23,1095.71 899.78,1096.99 910.00,1097.00
             925.95,1097.02 938.35,1091.41 953.00,1086.05
             953.00,1086.05 1001.00,1068.00 1001.00,1068.00
             1001.29,1079.48 1007.41,1085.84 1019.00,1086.00
             1044.57,1086.34 1063.44,1071.53 1085.00,1060.00
             1080.08,1074.78 1076.85,1090.27 1096.00,1095.96
             1099.86,1097.10 1104.00,1097.11 1108.00,1097.26
             1124.97,1097.88 1138.59,1091.78 1154.00,1085.81
             1154.00,1085.81 1191.00,1071.00 1191.00,1071.00
             1186.61,1089.07 1196.45,1098.54 1214.00,1099.82
             1219.08,1100.19 1230.77,1097.68 1236.00,1096.37
             1236.00,1096.37 1289.00,1078.00 1289.00,1078.00
             1295.77,1106.81 1329.90,1097.18 1349.00,1088.56
             1349.00,1088.56 1359.00,1083.15 1359.00,1083.15
             1359.00,1083.15 1373.00,1075.00 1373.00,1075.00
             1371.87,1078.10 1371.07,1080.64 1371.08,1084.00
             1371.12,1097.02 1382.33,1102.92 1394.00,1102.92
             1397.22,1102.92 1406.61,1101.32 1410.00,1100.58
             1441.80,1093.57 1470.86,1077.53 1502.00,1068.42
             1529.18,1060.48 1570.78,1053.67 1599.00,1054.00
             1599.00,1054.00 1609.00,1055.06 1609.00,1055.06
             1609.00,1055.06 1620.00,1055.06 1620.00,1055.06
             1625.72,1055.03 1638.15,1057.22 1642.96,1055.06
             1649.34,1052.67 1649.63,1042.82 1643.81,1039.45
             1640.53,1037.55 1635.76,1038.16 1632.00,1037.72
             1632.00,1037.72 1614.00,1037.00 1614.00,1037.00
             1614.00,1037.00 1601.00,1036.00 1601.00,1036.00
             1567.81,1035.62 1525.89,1042.10 1494.00,1051.42
             1494.00,1051.42 1425.00,1077.00 1425.00,1077.00
             1413.58,1080.81 1401.18,1085.34 1389.00,1084.00
             1395.01,1073.56 1400.61,1064.40 1408.26,1055.00
             1411.12,1051.49 1420.09,1042.09 1421.26,1039.00
             1424.07,1031.60 1419.06,1024.66 1411.00,1026.40
             1406.76,1027.31 1391.42,1039.58 1387.00,1043.00
             1386.74,1037.43 1385.65,1029.82 1382.78,1025.00
             1373.47,1009.40 1350.06,1012.85 1336.00,1018.87
             1323.66,1024.16 1313.19,1032.21 1304.09,1042.00
             1304.09,1042.00 1292.82,1055.44 1292.82,1055.44
             1290.33,1057.39 1276.82,1062.47 1273.00,1064.00
             1259.87,1069.25 1245.68,1074.95 1232.00,1078.37
             1227.44,1079.51 1218.51,1081.91 1214.00,1081.35
             1203.06,1079.98 1213.72,1067.26 1216.90,1063.00
             1221.76,1056.48 1233.15,1043.64 1239.00,1038.04
             1242.93,1034.28 1249.58,1029.13 1252.69,1025.00
             1256.74,1019.59 1255.58,1010.88 1247.99,1009.62
             1241.69,1008.58 1237.16,1014.09 1233.00,1017.83
             1233.00,1017.83 1222.04,1028.00 1222.04,1028.00
             1218.44,1031.75 1210.34,1041.54 1206.72,1044.19
             1206.72,1044.19 1177.00,1056.80 1177.00,1056.80
             1177.00,1056.80 1138.00,1072.05 1138.00,1072.05
             1129.06,1075.38 1120.70,1078.89 1111.00,1079.00
             1105.36,1079.06 1104.53,1078.99 1099.00,1078.00
             1100.96,1069.40 1104.85,1062.80 1108.75,1055.00
             1111.00,1050.50 1115.28,1041.83 1118.53,1038.32
             1121.10,1035.54 1128.57,1030.68 1132.00,1028.28
             1132.00,1028.28 1155.00,1011.63 1155.00,1011.63
             1181.61,991.67 1209.95,970.01 1230.80,944.00
             1242.39,929.54 1254.78,913.33 1255.91,894.00
             1256.06,891.30 1255.79,888.60 1255.07,886.00
             1250.45,869.22 1234.73,872.10 1223.00,878.87
             1201.72,891.17 1176.28,923.04 1161.37,943.00
             1161.37,943.00 1121.33,999.00 1121.33,999.00
             1121.33,999.00 1110.33,1015.00 1110.33,1015.00
             1107.71,1018.95 1106.15,1022.60 1102.00,1025.00 Z
           M 1238.00,892.00
           C 1235.93,906.70 1228.54,917.72 1219.39,929.00
             1204.80,946.98 1194.67,956.23 1177.00,970.92
             1170.84,976.04 1155.46,989.24 1149.00,992.00
             1161.51,972.01 1189.78,934.99 1205.96,918.00
             1215.41,908.08 1225.26,897.69 1238.00,892.00 Z
           M 775.00,969.00
           C 775.00,969.00 775.00,970.00 775.00,970.00
             775.00,970.00 774.00,969.00 774.00,969.00
             774.00,969.00 775.00,969.00 775.00,969.00 Z
           M 871.00,971.00
           C 871.00,971.00 871.00,972.00 871.00,972.00
             871.00,972.00 870.00,971.00 870.00,971.00
             870.00,971.00 871.00,971.00 871.00,971.00 Z
           M 870.00,972.00
           C 870.00,972.00 870.00,973.00 870.00,973.00
             870.00,973.00 869.00,972.00 869.00,972.00
             869.00,972.00 870.00,972.00 870.00,972.00 Z
           M 1270.02,978.74
           C 1258.30,985.29 1266.75,999.20 1276.96,995.11
             1282.49,992.89 1283.68,984.54 1279.57,980.43
             1276.78,977.65 1273.49,977.93 1270.02,978.74 Z
           M 933.00,1024.00
           C 929.71,1031.72 916.59,1044.44 909.00,1048.00
             913.47,1039.32 924.24,1028.30 933.00,1024.00 Z
           M 1019.00,1068.00
           C 1026.30,1053.11 1047.64,1035.07 1063.00,1028.86
             1068.69,1026.22 1079.98,1021.97 1083.98,1028.86
             1088.83,1037.77 1077.73,1042.77 1072.00,1046.20
             1056.81,1055.30 1036.95,1067.95 1019.00,1068.00 Z
           M 1354.00,1032.32
           C 1357.42,1031.95 1362.75,1031.41 1365.81,1033.74
             1370.87,1038.09 1367.64,1046.66 1365.81,1052.00
             1365.53,1053.69 1364.96,1056.25 1364.02,1057.67
             1362.31,1060.24 1356.78,1063.14 1354.00,1064.80
             1344.99,1070.18 1332.34,1076.93 1322.00,1078.78
             1319.86,1078.90 1318.17,1079.01 1316.00,1078.78
             1300.86,1078.89 1308.40,1065.76 1313.81,1059.00
             1324.19,1046.02 1337.58,1036.00 1354.00,1032.32 Z
           M 909.00,1048.00
           C 909.00,1048.00 909.00,1049.00 909.00,1049.00
             909.00,1049.00 908.00,1048.00 908.00,1048.00
             908.00,1048.00 909.00,1048.00 909.00,1048.00 Z
           M 1086.00,1059.00
           C 1086.00,1059.00 1086.00,1060.00 1086.00,1060.00
             1086.00,1060.00 1085.00,1059.00 1085.00,1059.00
             1085.00,1059.00 1086.00,1059.00 1086.00,1059.00 Z" />
</svg>
